<?xml version="1.0" standalone="no"?>
<!DOCTYPE svg PUBLIC "-//W3C//DTD SVG 20010904//EN"
 "http://www.w3.org/TR/2001/REC-SVG-20010904/DTD/svg10.dtd">
<svg version="1.0" xmlns="http://www.w3.org/2000/svg"
 width="50.000000pt" height="50.000000pt" viewBox="0 0 50.000000 50.000000"
 preserveAspectRatio="xMidYMid meet">
<g transform="translate(0.000000,50.000000) scale(0.100000,-0.100000)"
fill="rgba(255,255,255,1)" stroke="none">
<path d="M147 476 c-65 -32 -92 -59 -124 -123 -22 -46 -25 -63 -21 -116 6 -74
25 -114 77 -166 117 -117 313 -81 393 71 29 56 31 156 3 213 -60 124 -210 179
-328 121z m176 -56 c57 -25 87 -62 87 -107 0 -28 -5 -36 -35 -50 -19 -9 -35
-21 -36 -27 -1 -6 -3 -29 -4 -50 -5 -59 -22 -82 -82 -112 -45 -22 -59 -24 -79
-15 -18 8 -24 19 -24 41 0 34 15 40 25 10 8 -25 21 -26 33 -2 15 28 3 42 -36
43 -37 1 -37 1 -7 8 17 4 43 3 58 -2 23 -8 33 -5 54 14 47 44 49 84 7 126 -7
7 -10 26 -8 42 7 44 -23 57 -81 38 -37 -13 -46 -13 -55 -2 -9 11 -6 20 15 39
42 39 90 40 168 6z"/>
</g>
</svg>